<svg width="39" height="39" viewBox="0 0 39 39" fill="none">
    <path class="cart-icon-path"
        d="M34.125 6.50001H3.25V9.75001H6.9875L12.7091 25.4849C12.9377 26.1113 13.3531 26.6525 13.8992 27.0352C14.4453 27.4179 15.0957 27.6238 15.7625 27.625H29.25V24.375H15.7625L14.5795 21.125H29.25C29.9 21.125 30.4882 20.7383 30.7434 20.1403L35.6184 8.76526C35.7252 8.51815 35.7688 8.24834 35.7453 7.98017C35.7218 7.71199 35.6319 7.45388 35.4837 7.22913C35.3356 7.00437 35.1338 6.82003 34.8966 6.69274C34.6594 6.56545 34.3942 6.49922 34.125 6.50001Z"
    />
    <path class="cart-icon-path"
        d="M17.0625 34.125C18.4087 34.125 19.5 33.0337 19.5 31.6875C19.5 30.3413 18.4087 29.25 17.0625 29.25C15.7163 29.25 14.625 30.3413 14.625 31.6875C14.625 33.0337 15.7163 34.125 17.0625 34.125Z"
    />
    <path class="cart-icon-path"
        d="M26.8125 34.125C28.1587 34.125 29.25 33.0337 29.25 31.6875C29.25 30.3413 28.1587 29.25 26.8125 29.25C25.4663 29.25 24.375 30.3413 24.375 31.6875C24.375 33.0337 25.4663 34.125 26.8125 34.125Z" />
</svg>